<svg id="visual" viewBox="0 0 900 400" width="900" height="400" xmlns="http://www.w3.org/2000/svg" xmlns:xlink="http://www.w3.org/1999/xlink" version="1.1"><path d="M0 265L21.5 270.5C43 276 86 287 128.8 281.8C171.7 276.7 214.3 255.3 257.2 253.2C300 251 343 268 385.8 268.7C428.7 269.3 471.3 253.7 514.2 252.7C557 251.7 600 265.3 642.8 272.2C685.7 279 728.3 279 771.2 276.2C814 273.3 857 267.7 878.5 264.8L900 262L900 401L878.5 401C857 401 814 401 771.2 401C728.3 401 685.7 401 642.8 401C600 401 557 401 514.2 401C471.3 401 428.7 401 385.8 401C343 401 300 401 257.2 401C214.3 401 171.7 401 128.8 401C86 401 43 401 21.5 401L0 401Z" fill="#0066ff"></path><path d="M0 309L21.5 303.3C43 297.7 86 286.3 128.8 279.3C171.7 272.3 214.3 269.7 257.2 270.8C300 272 343 277 385.8 284.2C428.7 291.3 471.3 300.7 514.2 302.8C557 305 600 300 642.8 300.3C685.7 300.7 728.3 306.3 771.2 309.2C814 312 857 312 878.5 312L900 312L900 401L878.5 401C857 401 814 401 771.2 401C728.3 401 685.7 401 642.8 401C600 401 557 401 514.2 401C471.3 401 428.7 401 385.8 401C343 401 300 401 257.2 401C214.3 401 171.7 401 128.8 401C86 401 43 401 21.5 401L0 401Z" fill="#007aff"></path><path d="M0 306L21.5 309.2C43 312.3 86 318.7 128.8 323.8C171.7 329 214.3 333 257.2 328C300 323 343 309 385.8 302.3C428.7 295.7 471.3 296.3 514.2 301.3C557 306.3 600 315.7 642.8 315.2C685.7 314.7 728.3 304.3 771.2 306.5C814 308.7 857 323.3 878.5 330.7L900 338L900 401L878.5 401C857 401 814 401 771.2 401C728.3 401 685.7 401 642.8 401C600 401 557 401 514.2 401C471.3 401 428.7 401 385.8 401C343 401 300 401 257.2 401C214.3 401 171.7 401 128.8 401C86 401 43 401 21.5 401L0 401Z" fill="#008cff"></path><path d="M0 331L21.5 336C43 341 86 351 128.8 356C171.7 361 214.3 361 257.2 354.2C300 347.3 343 333.7 385.8 329.5C428.7 325.3 471.3 330.7 514.2 333.5C557 336.3 600 336.7 642.8 334.7C685.7 332.7 728.3 328.3 771.2 326.5C814 324.7 857 325.3 878.5 325.7L900 326L900 401L878.5 401C857 401 814 401 771.2 401C728.3 401 685.7 401 642.8 401C600 401 557 401 514.2 401C471.3 401 428.7 401 385.8 401C343 401 300 401 257.2 401C214.3 401 171.7 401 128.8 401C86 401 43 401 21.5 401L0 401Z" fill="#2b9dfc"></path><path d="M0 367L21.5 366.2C43 365.3 86 363.7 128.8 360.8C171.7 358 214.3 354 257.2 354.5C300 355 343 360 385.8 364.2C428.7 368.3 471.3 371.7 514.2 371.2C557 370.7 600 366.3 642.8 366.5C685.7 366.7 728.3 371.3 771.2 372.7C814 374 857 372 878.5 371L900 370L900 401L878.5 401C857 401 814 401 771.2 401C728.3 401 685.7 401 642.8 401C600 401 557 401 514.2 401C471.3 401 428.7 401 385.8 401C343 401 300 401 257.2 401C214.3 401 171.7 401 128.8 401C86 401 43 401 21.5 401L0 401Z" fill="#4facf7"></path></svg>