<svg id="visual" viewBox="0 0 900 400" width="900" height="400" xmlns="http://www.w3.org/2000/svg" xmlns:xlink="http://www.w3.org/1999/xlink" version="1.1"><path d="M0 41L82 57L164 25L245 29L327 65L409 25L491 33L573 49L655 57L736 65L818 53L900 49L900 0L818 0L736 0L655 0L573 0L491 0L409 0L327 0L245 0L164 0L82 0L0 0Z" fill="#2c2c2c"></path><path d="M0 77L82 117L164 61L245 133L327 113L409 93L491 129L573 145L655 93L736 153L818 141L900 129L900 47L818 51L736 63L655 55L573 47L491 31L409 23L327 63L245 27L164 23L82 55L0 39Z" fill="#403331"></path><path d="M0 141L82 169L164 145L245 173L327 173L409 133L491 209L573 173L655 161L736 197L818 197L900 165L900 127L818 139L736 151L655 91L573 143L491 127L409 91L327 111L245 131L164 59L82 115L0 75Z" fill="#543936"></path><path d="M0 277L82 245L164 249L245 285L327 261L409 229L491 297L573 241L655 233L736 325L818 245L900 269L900 163L818 195L736 195L655 159L573 171L491 207L409 131L327 171L245 171L164 143L82 167L0 139Z" fill="#68403b"></path><path d="M0 401L82 401L164 401L245 401L327 401L409 401L491 401L573 401L655 401L736 401L818 401L900 401L900 267L818 243L736 323L655 231L573 239L491 295L409 227L327 259L245 283L164 247L82 243L0 275Z" fill="#7c4641"></path></svg>