<svg width="100" height="100" viewBox="4 0 24 24" fill="none" xmlns="http://www.w3.org/2000/svg">
<g clip-path="url(#clip0)">
<path d="M15.9886 16.0268C15.9886 14.0528 18.3724 11.6204 19.4865 10.1939C21.5632 7.53787 24 5.00369 24 5.00369C24 5.00369 21.2666 5.31206 18.465 6.21272C16.7087 6.77652 15.0488 7.59063 13.3958 8.3995C13.3073 6.27545 13.4489 4.12079 13.5969 2C13.5969 2 9.56369 3.00599 8.26139 5.90024C7.5257 7.53724 8.72553 9.70817 9.01454 11.3204C9.14141 12.0365 8.74246 14.1024 7.52665 13.4945C7.0365 13.2401 6.22054 12.8296 5.52132 12.8223C5.03946 12.8223 4.69858 12.9923 4.41455 13.1339C4.16528 13.2582 3.90097 13.3748 3.61625 13.3698L0 12.6424C0 12.6424 2.36095 13.5555 4.25 14.5C5.22762 14.9888 5.75278 15.4971 6.25943 15.9874C6.78926 16.5002 7.29886 16.9934 8.28455 17.4243C10.2083 18.2631 13.0065 18.7688 15.5 19.5C18.0862 20.2674 20.0568 21.0384 20.6976 21.3836C20.4968 21.2735 20.4721 21.0343 20.5 21C20.553 20.9223 21.1995 21.1212 21.1995 21.1212C19.2753 20.2945 15.9478 18.5279 15.9886 16.0268Z" fill="#1BA0E2"></path>
<path d="M15.9887 16.0043C15.9886 16.0118 15.9886 16.0193 15.9886 16.0268C15.9783 16.6591 16.1833 17.2445 16.5265 17.7797C14.8854 15.6821 13.3292 9.05031 13.3973 8.3987L13.4263 8.3845C14.0737 8.0677 14.7223 7.75033 15.3774 7.44775C15.358 7.97928 15.2069 12.824 15.9887 16.0043Z" fill="#0F7EA6"></path>
</g>
<defs>
<clippath id="clip0">
<rect width="24" height="24" fill="white"></rect>
</clippath>
</defs>
</svg>
