<svg id="Layer_1" data-name="Layer 1" xmlns="http://www.w3.org/2000/svg" viewBox="0 0 622 623.52"><defs><style>.cls-1{fill:#eb2836;}.cls-2{fill:#fff;}</style></defs><title>Artboard 1 copy 3</title><circle class="cls-1" cx="311" cy="311.76" r="305.78"/><path class="cls-2" d="M334.64,284.55c1.32-40.11,11.91-76.06,36.11-107.3C381,164,393.51,153.45,410.1,149c19.59-5.28,37.19-.76,52.77,11.84,17.54,14.18,28.27,33.15,36.2,53.75,11.35,29.49,17.07,60,14.24,91.71-1.54,17.14-8.67,32-20.3,44.52a232.5,232.5,0,0,1-23.3,21.85c-11.42,9.27-16.32,21.32-17.06,35.41-.66,12.62-.45,25.29-1.25,37.9A183,183,0,0,1,448,471.61a23.83,23.83,0,0,1-11.38,15.87c-15.37,9.22-33.67,0-36.27-19.4-2.17-16.24-2.21-32.76-3.14-49.16-.29-5.05-.2-10.12-.65-15.15-1-10.95-6-19.95-14.05-27.26A141.52,141.52,0,0,0,371.35,367c-21.17-15.51-31.32-37.21-35.07-62.42C335.24,297.68,335.11,290.6,334.64,284.55Z"/><path class="cls-2" d="M177.73,216c0-13.91-.27-27.83.15-41.72a47.91,47.91,0,0,1,3.14-14.7c3.1-8.39,12-14,20.89-13.62s13.31,6.51,16.05,14c5,13.83,5.13,28.35,5,42.79-.12,15.89-.86,31.78-1.13,47.68a90.05,90.05,0,0,0,.9,14c1.15,8.05,6.69,12.92,14.63,13.41,6.62.41,12.15-3.3,12.93-11.78,1-11,.21-22.25-.46-33.35-1-16-2.58-32-3.72-48a33.85,33.85,0,0,1,.94-8.58c2-10.6,6.52-15.62,14.85-16.9,10.26-1.56,17.83,2.25,22.64,11.85,6.26,12.49,8.67,26.12,9.45,39.77q2.08,36.75,2.18,73.61c0,10.57-1.55,21.25-3.48,31.69a72.91,72.91,0,0,1-22,40.2c-7.05,6.72-14.06,13.66-21.94,19.32-15.06,10.82-20.45,26-21.77,43.42-1.19,15.84-2.07,31.69-3.3,47.53a34.36,34.36,0,0,1-2.24,8.88c-3.64,10-10.5,14.49-21.67,14.41-11.47-.08-19-4.58-21.81-14.92-2.09-7.56-2.73-15.58-3.4-23.44-1.3-15.09-1.53-30.29-3.41-45.29-1.64-13-8.29-23.64-18.78-31.86C146.69,370,141.46,365,136,360.18c-21.37-18.84-30.77-43.14-31.94-71a499.44,499.44,0,0,1,4-84.33c1.28-10,2.18-20.15,4.74-29.84,3.12-11.8,11.85-16.69,24-15.32,8.93,1,15.8,7.27,16.18,17.49.48,12.72-.53,25.52-1.43,38.25-.9,12.94-3,25.83-3.43,38.78a35.66,35.66,0,0,0,4.33,17.49c5.18,9.35,16.1,9.18,21.2-.23A39.06,39.06,0,0,0,177.82,255c.59-13,.19-26,.19-39Z"/></svg>